<svg width="44" height="44" viewBox="0 0 44 44" fill="none" xmlns="http://www.w3.org/2000/svg">
<g clip-path="url(#clip0)">
<path d="M41.5687 0.00862885H2.42843C1.08815 0.00862885 0 1.09463 0 2.43709V41.578C0 42.9204 1.08815 44.0079 2.42843 44.0079H23.5004V26.9688H17.7669V20.3275H23.5004V15.43C23.5004 9.74785 26.9699 6.65213 32.0397 6.65213C34.4703 6.65213 36.5546 6.83398 37.1624 6.91295V12.8523L33.6459 12.8537C30.8893 12.8537 30.3575 14.1643 30.3575 16.0863V20.3253H36.9342L36.0743 26.9659H30.3568V44.0057H41.5679C42.9097 44.0057 43.9985 42.9168 43.9985 41.578V2.43565C43.9978 1.09463 42.9104 0.00862885 41.5687 0.00862885Z" fill="white"/>
</g>
<defs>
<clipPath id="clip0">
<rect width="44" height="44" fill="white"/>
</clipPath>
</defs>
</svg>
