<svg width="44" height="44" viewBox="0 0 44 44" fill="none" xmlns="http://www.w3.org/2000/svg">
<path d="M32.3125 7.82031H11.6875C9.55518 7.82031 7.82031 9.55518 7.82031 11.6875V32.3125C7.82031 34.4448 9.55518 36.1797 11.6875 36.1797H32.3125C34.4448 36.1797 36.1797 34.4448 36.1797 32.3125V11.6875C36.1797 9.55518 34.4448 7.82031 32.3125 7.82031ZM22 31.0234C17.025 31.0234 12.9766 26.975 12.9766 22C12.9766 17.025 17.025 12.9766 22 12.9766C26.975 12.9766 31.0234 17.025 31.0234 22C31.0234 26.975 26.975 31.0234 22 31.0234ZM31.0234 15.5547C29.6021 15.5547 28.4453 14.3979 28.4453 12.9766C28.4453 11.5552 29.6021 10.3984 31.0234 10.3984C32.4448 10.3984 33.6016 11.5552 33.6016 12.9766C33.6016 14.3979 32.4448 15.5547 31.0234 15.5547Z" fill="white"/>
<path d="M22 15.5547C18.4464 15.5547 15.5547 18.4464 15.5547 22C15.5547 25.5536 18.4464 28.4453 22 28.4453C25.5536 28.4453 28.4453 25.5536 28.4453 22C28.4453 18.4464 25.5536 15.5547 22 15.5547Z" fill="white"/>
<path d="M37.4688 0H6.53125C2.9776 0 0 2.9776 0 6.53125V37.4688C0 41.0224 2.9776 44 6.53125 44H37.4688C41.0224 44 44 41.0224 44 37.4688V6.53125C44 2.9776 41.0224 0 37.4688 0ZM38.7578 32.3125C38.7578 35.8661 35.8661 38.7578 32.3125 38.7578H11.6875C8.13385 38.7578 5.24219 35.8661 5.24219 32.3125V11.6875C5.24219 8.13385 8.13385 5.24219 11.6875 5.24219H32.3125C35.8661 5.24219 38.7578 8.13385 38.7578 11.6875V32.3125Z" fill="white"/>
</svg>
