<svg width="44" height="44" viewBox="0 0 44 44" fill="none" xmlns="http://www.w3.org/2000/svg">
<path d="M39.2857 0H4.71429C2.11063 0 0 2.11063 0 4.71429V39.2857C0 41.8894 2.11063 44 4.71429 44H39.2857C41.8894 44 44 41.8894 44 39.2857V4.71429C44 2.11063 41.8894 0 39.2857 0ZM17.4936 22.5995C8.58678 16.1353 8.67753 16.119 6.28571 14.2575V11.7857C6.28571 10.4839 7.34103 9.42857 8.64286 9.42857H35.3571C36.659 9.42857 37.7143 10.4839 37.7143 11.7857V14.2575C35.3207 16.1205 35.4127 16.1357 26.5064 22.5996C25.4751 23.3514 23.4232 25.165 22 25.1428C20.5756 25.1642 18.5265 23.3526 17.4936 22.5995V22.5995ZM37.7143 18.2458V32.2143C37.7143 33.5161 36.659 34.5714 35.3571 34.5714H8.64286C7.34103 34.5714 6.28571 33.5161 6.28571 32.2143V18.2458C7.65659 19.3059 9.5591 20.7243 15.6458 25.1418C17.0367 26.1574 19.3755 28.2989 21.9997 28.2856C24.6404 28.2988 27.0123 26.1209 28.3561 25.1403C34.4413 20.7241 36.3434 19.3058 37.7143 18.2458V18.2458Z" fill="white"/>
</svg>
