<svg width="44" height="44" viewBox="0 0 44 44" fill="none" xmlns="http://www.w3.org/2000/svg">
<path d="M39.2857 0H4.71429C3.46398 0 2.26488 0.496682 1.38078 1.38078C0.496682 2.26488 0 3.46398 0 4.71429L0 39.2857C0 40.536 0.496682 41.7351 1.38078 42.6192C2.26488 43.5033 3.46398 44 4.71429 44H39.2857C40.536 44 41.7351 43.5033 42.6192 42.6192C43.5033 41.7351 44 40.536 44 39.2857V4.71429C44 3.46398 43.5033 2.26488 42.6192 1.38078C41.7351 0.496682 40.536 0 39.2857 0V0ZM37.676 30.1881L36.2028 36.5721C36.1279 36.8966 35.9453 37.1862 35.6847 37.3937C35.4241 37.6011 35.1009 37.7141 34.7679 37.7143C19.0536 37.7143 6.28571 24.9749 6.28571 9.23214C6.2974 8.9022 6.41469 8.58471 6.62031 8.32641C6.82593 8.0681 7.10902 7.88261 7.42795 7.79723L13.8119 6.32402C13.9208 6.30099 14.0316 6.28817 14.1429 6.28571C14.4277 6.30009 14.7036 6.39047 14.9418 6.54746C15.1799 6.70445 15.3717 6.92233 15.4972 7.17848L18.4437 14.0535C18.5158 14.2388 18.556 14.4351 18.5625 14.6339C18.5385 15.07 18.3446 15.4794 18.0223 15.7742L14.301 18.8188C16.5558 23.5979 20.4021 27.4442 25.1812 29.699L28.2258 25.9777C28.5206 25.6554 28.93 25.4615 29.3661 25.4375C29.5649 25.4439 29.7612 25.4841 29.9465 25.5563L36.8215 28.5028C37.0778 28.6281 37.2958 28.8199 37.4528 29.0581C37.6098 29.2963 37.7001 29.5722 37.7143 29.8571C37.7123 29.9685 37.6995 30.0793 37.676 30.1881Z" fill="white"/>
</svg>
