<svg width="44" height="44" viewBox="0 0 44 44" fill="none" xmlns="http://www.w3.org/2000/svg">
<path d="M22 8.91786C14.8598 8.91786 9.05536 14.7223 9.04554 21.8625C9.04554 24.308 9.73304 26.6946 11.0295 28.7473L11.3339 29.2384L10.0277 34.0116L14.9286 32.725L15.4 33.0098C17.3839 34.1884 19.6625 34.817 21.9902 34.817H22C29.1304 34.817 35.092 29.0125 35.092 21.8723C35.092 18.4152 33.5991 15.1643 31.1536 12.7187C28.6982 10.2634 25.4571 8.91786 22 8.91786ZM29.6116 27.4214C29.2875 28.3348 27.7357 29.1598 26.9893 29.2679C25.7518 29.4545 24.7893 29.3562 22.3241 28.2955C18.425 26.6062 15.8714 22.6777 15.675 22.4223C15.4786 22.167 14.0839 20.3107 14.0839 18.3955C14.0839 16.4804 15.0857 15.5375 15.4491 15.1446C15.8027 14.7518 16.225 14.6536 16.4902 14.6536C16.7455 14.6536 17.0107 14.6536 17.2366 14.6634C17.4723 14.6732 17.7964 14.575 18.1107 15.3313C18.4348 16.1071 19.2107 18.0223 19.3089 18.2187C19.4071 18.4152 19.4759 18.6411 19.3384 18.8964C18.592 20.3893 17.7964 20.3304 18.1991 21.0179C19.7018 23.6009 21.2045 24.4946 23.4929 25.6438C23.8857 25.8402 24.1116 25.8107 24.3375 25.5455C24.5634 25.2902 25.3098 24.4063 25.5652 24.0232C25.8205 23.6304 26.0857 23.6991 26.4393 23.8268C26.7929 23.9545 28.708 24.8973 29.1009 25.0937C29.4937 25.2902 29.7491 25.3884 29.8473 25.5455C29.9357 25.7321 29.9357 26.5179 29.6116 27.4214V27.4214ZM39.2857 0H4.71429C2.11161 0 0 2.11161 0 4.71429V39.2857C0 41.8884 2.11161 44 4.71429 44H39.2857C41.8884 44 44 41.8884 44 39.2857V4.71429C44 2.11161 41.8884 0 39.2857 0ZM21.9902 37.4393C19.3777 37.4393 16.8143 36.7812 14.5455 35.5437L6.28571 37.7143L8.49554 29.6411C7.13036 27.2839 6.41339 24.6027 6.41339 21.8527C6.42321 13.2687 13.4062 6.28571 21.9902 6.28571C26.1545 6.28571 30.0634 7.90625 33.0098 10.8527C35.9464 13.7991 37.7143 17.708 37.7143 21.8723C37.7143 30.4562 30.5741 37.4393 21.9902 37.4393Z" fill="white"/>
</svg>
